thincompressed.ufo
<glyph name="parenleft" format="1">
  <advance width="248"/>
  <unicode hex="0028"/>
  <outline>
    <contour>
      <point x="218" y="-235"/>
      <point x="204" y="-251"/>
      <point x="218" y="-235" type="curve"/>
      <point x="90" y="-54"/>
      <point x="55" y="104"/>
      <point x="55" y="326" type="curve"/>
      <point x="55" y="548"/>
      <point x="91" y="705"/>
      <point x="217" y="888" type="curve"/>
      <point x="203" y="903"/>
      <point x="217" y="888"/>
      <point x="203" y="903" type="curve"/>
      <point x="70" y="717"/>
      <point x="30" y="555"/>
      <point x="30" y="326" type="curve"/>
      <point x="30" y="97"/>
      <point x="71" y="-64"/>
      <point x="204" y="-251" type="curve"/>
    </contour>
  </outline>
</glyph>
<glyph name="parenright" format="1">
  <advance width="257"/>
  <unicode hex="0029"/>
  <outline>
    <contour>
      <point x="44" y="-267"/>
      <point x="30" y="-252"/>
      <point x="44" y="-267" type="curve"/>
      <point x="178" y="-72"/>
      <point x="227" y="90"/>
      <point x="227" y="327" type="curve"/>
      <point x="227" y="557"/>
      <point x="185" y="718"/>
      <point x="47" y="903" type="curve"/>
      <point x="33" y="887"/>
      <point x="47" y="903"/>
      <point x="33" y="887" type="curve"/>
      <point x="163" y="706"/>
      <point x="202" y="549"/>
      <point x="202" y="326" type="curve"/>
      <point x="202" y="97"/>
      <point x="155" y="-61"/>
      <point x="30" y="-252" type="curve"/>
    </contour>
  </outline>
</glyph>
<glyph name="A" format="1">
  <advance width="485"/>
  <unicode hex="0041"/>
  <outline>
    <contour>
      <point x="52" y="22"/>
      <point x="52" y="0"/>
      <point x="52" y="22" type="curve"/>
      <point x="52" y="22"/>
      <point x="52" y="22"/>
      <point x="52" y="22" type="curve"/>
      <point x="52" y="0"/>
      <point x="52" y="22"/>
      <point x="52" y="0" type="curve"/>
      <point x="52" y="0"/>
      <point x="52" y="0"/>
      <point x="52" y="0" type="curve"/>
    </contour>
    <contour>
      <point x="52" y="0"/>
      <point x="52" y="22"/>
      <point x="52" y="0" type="curve"/>
      <point x="97" y="0"/>
      <point x="-84" y="0"/>
      <point x="53" y="0" type="curve"/>
      <point x="53" y="22"/>
      <point x="53" y="0"/>
      <point x="53" y="22" type="curve"/>
      <point x="-84" y="22"/>
      <point x="189" y="22"/>
      <point x="52" y="22" type="curve"/>
    </contour>
    <contour>
      <point x="435" y="0"/>
      <point x="435" y="22"/>
      <point x="435" y="0" type="curve"/>
      <point x="435" y="0"/>
      <point x="435" y="0"/>
      <point x="435" y="0" type="curve"/>
      <point x="435" y="22"/>
      <point x="435" y="0"/>
      <point x="435" y="22" type="curve"/>
      <point x="435" y="22"/>
      <point x="435" y="22"/>
      <point x="435" y="22" type="curve"/>
    </contour>
    <contour>
      <point x="435" y="22"/>
      <point x="435" y="0"/>
      <point x="435" y="22" type="curve"/>
      <point x="297" y="22"/>
      <point x="570" y="22"/>
      <point x="432" y="22" type="curve"/>
      <point x="432" y="0"/>
      <point x="432" y="22"/>
      <point x="432" y="0" type="curve"/>
      <point x="478" y="0"/>
      <point x="389" y="0"/>
      <point x="435" y="0" type="curve"/>
    </contour>
    <contour>
      <point x="370" y="277"/>
      <point x="378" y="254"/>
      <point x="370" y="277" type="curve"/>
      <point x="289" y="277"/>
      <point x="208" y="277"/>
      <point x="128" y="277" type="curve"/>
      <point x="118" y="254"/>
      <point x="128" y="277"/>
      <point x="118" y="254" type="curve"/>
      <point x="204" y="254"/>
      <point x="291" y="254"/>
      <point x="378" y="254" type="curve"/>
    </contour>
    <contour>
      <point x="455" y="0"/>
      <point x="430" y="0"/>
      <point x="455" y="0" type="curve"/>
      <point x="392" y="241"/>
      <point x="329" y="481"/>
      <point x="266" y="722" type="curve"/>
      <point x="244" y="722"/>
      <point x="266" y="722"/>
      <point x="244" y="722" type="curve"/>
      <point x="306" y="481"/>
      <point x="368" y="241"/>
      <point x="430" y="0" type="curve"/>
    </contour>
    <contour>
      <point x="56" y="0"/>
      <point x="30" y="0"/>
      <point x="56" y="0" type="curve"/>
      <point x="126" y="241"/>
      <point x="195" y="481"/>
      <point x="264" y="722" type="curve"/>
      <point x="242" y="722"/>
      <point x="264" y="722"/>
      <point x="242" y="722" type="curve"/>
      <point x="172" y="481"/>
      <point x="101" y="241"/>
      <point x="30" y="0" type="curve"/>
    </contour>
  </outline>
</glyph>
<glyph name="B" format="1">
  <advance width="363"/>
  <unicode hex="0042"/>
  <outline>
    <contour>
      <point x="42" y="722"/>
      <point x="42" y="700"/>
      <point x="42" y="722" type="curve"/>
      <point x="42" y="722"/>
      <point x="42" y="722"/>
      <point x="42" y="722" type="curve"/>
      <point x="42" y="700"/>
      <point x="42" y="722"/>
      <point x="42" y="700" type="curve"/>
      <point x="42" y="700"/>
      <point x="42" y="700"/>
      <point x="42" y="700" type="curve"/>
    </contour>
    <contour>
      <point x="42" y="22"/>
      <point x="42" y="0"/>
      <point x="42" y="22" type="curve"/>
      <point x="42" y="22"/>
      <point x="42" y="22"/>
      <point x="42" y="22" type="curve"/>
      <point x="42" y="0"/>
      <point x="42" y="22"/>
      <point x="42" y="0" type="curve"/>
      <point x="42" y="0"/>
      <point x="42" y="0"/>
      <point x="42" y="0" type="curve"/>
    </contour>
    <contour>
      <point x="35" y="700"/>
      <point x="35" y="722"/>
      <point x="35" y="700" type="curve"/>
      <point x="85" y="700"/>
      <point x="135" y="700"/>
      <point x="186" y="700" type="curve"/>
      <point x="255" y="700"/>
      <point x="277" y="637"/>
      <point x="277" y="555" type="curve"/>
      <point x="277" y="480"/>
      <point x="228" y="421"/>
      <point x="159" y="421" type="curve"/>
      <point x="117" y="421"/>
      <point x="76" y="421"/>
      <point x="35" y="421" type="curve"/>
      <point x="35" y="399"/>
      <point x="35" y="421"/>
      <point x="35" y="399" type="curve"/>
      <point x="72" y="399"/>
      <point x="109" y="399"/>
      <point x="146" y="399" type="curve"/>
      <point x="235" y="399"/>
      <point x="301" y="464"/>
      <point x="301" y="555" type="curve"/>
      <point x="301" y="649"/>
      <point x="270" y="722"/>
      <point x="186" y="722" type="curve"/>
      <point x="135" y="722"/>
      <point x="85" y="722"/>
      <point x="35" y="722" type="curve"/>
    </contour>
    <contour>
      <point x="55" y="0"/>
      <point x="30" y="0"/>
      <point x="55" y="0" type="curve"/>
      <point x="55" y="241"/>
      <point x="55" y="481"/>
      <point x="55" y="722" type="curve"/>
      <point x="30" y="722"/>
      <point x="55" y="722"/>
      <point x="30" y="722" type="curve"/>
      <point x="30" y="481"/>
      <point x="30" y="241"/>
      <point x="30" y="0" type="curve"/>
    </contour>
    <contour>
      <point x="35" y="399"/>
      <point x="35" y="421"/>
      <point x="35" y="399" type="curve"/>
      <point x="76" y="399"/>
      <point x="117" y="399"/>
      <point x="159" y="399" type="curve"/>
      <point x="259" y="399"/>
      <point x="309" y="317"/>
      <point x="309" y="204" type="curve"/>
      <point x="309" y="100"/>
      <point x="278" y="22"/>
      <point x="184" y="22" type="curve"/>
      <point x="134" y="22"/>
      <point x="85" y="22"/>
      <point x="35" y="22" type="curve"/>
      <point x="35" y="0"/>
      <point x="35" y="22"/>
      <point x="35" y="0" type="curve"/>
      <point x="85" y="0"/>
      <point x="134" y="0"/>
      <point x="184" y="0" type="curve"/>
      <point x="292" y="0"/>
      <point x="334" y="87"/>
      <point x="334" y="204" type="curve"/>
      <point x="334" y="333"/>
      <point x="265" y="421"/>
      <point x="147" y="421" type="curve"/>
      <point x="109" y="421"/>
      <point x="72" y="421"/>
      <point x="35" y="421" type="curve"/>
    </contour>
  </outline>
</glyph>
<glyph name="D" format="1">
  <advance width="438"/>
  <unicode hex="0044"/>
  <outline>
    <contour>
      <point x="43" y="22"/>
      <point x="43" y="0"/>
      <point x="43" y="22" type="curve"/>
      <point x="43" y="22"/>
      <point x="43" y="22"/>
      <point x="43" y="22" type="curve"/>
      <point x="43" y="0"/>
      <point x="43" y="22"/>
      <point x="43" y="0" type="curve"/>
      <point x="43" y="0"/>
      <point x="43" y="0"/>
      <point x="43" y="0" type="curve"/>
    </contour>
    <contour>
      <point x="43" y="722"/>
      <point x="43" y="700"/>
      <point x="43" y="722" type="curve"/>
      <point x="43" y="722"/>
      <point x="43" y="722"/>
      <point x="43" y="722" type="curve"/>
      <point x="43" y="700"/>
      <point x="43" y="722"/>
      <point x="43" y="700" type="curve"/>
      <point x="43" y="700"/>
      <point x="43" y="700"/>
      <point x="43" y="700" type="curve"/>
    </contour>
    <contour>
      <point x="30" y="722"/>
      <point x="54" y="722"/>
      <point x="30" y="722" type="curve"/>
      <point x="30" y="481"/>
      <point x="30" y="241"/>
      <point x="30" y="0" type="curve"/>
      <point x="54" y="0"/>
      <point x="30" y="0"/>
      <point x="54" y="0" type="curve"/>
      <point x="54" y="241"/>
      <point x="54" y="481"/>
      <point x="54" y="722" type="curve"/>
    </contour>
    <contour>
      <point x="43" y="0"/>
      <point x="43" y="22"/>
      <point x="43" y="0" type="curve"/>
      <point x="90" y="0"/>
      <point x="137" y="0"/>
      <point x="183" y="0" type="curve"/>
      <point x="363" y="0"/>
      <point x="408" y="145"/>
      <point x="408" y="350" type="curve"/>
      <point x="408" y="567"/>
      <point x="365" y="722"/>
      <point x="175" y="722" type="curve"/>
      <point x="131" y="722"/>
      <point x="87" y="722"/>
      <point x="43" y="722" type="curve"/>
      <point x="43" y="700"/>
      <point x="43" y="722"/>
      <point x="43" y="700" type="curve"/>
      <point x="87" y="700"/>
      <point x="130" y="700"/>
      <point x="173" y="700" type="curve"/>
      <point x="351" y="700"/>
      <point x="384" y="552"/>
      <point x="384" y="349" type="curve"/>
      <point x="384" y="159"/>
      <point x="351" y="22"/>
      <point x="185" y="22" type="curve"/>
      <point x="138" y="22"/>
      <point x="91" y="22"/>
      <point x="43" y="22" type="curve"/>
    </contour>
  </outline>
</glyph>
<glyph name="I" format="1">
  <advance width="84"/>
  <unicode hex="0049"/>
  <outline>
    <contour>
      <point x="43" y="722"/>
      <point x="43" y="700"/>
      <point x="43" y="722" type="curve"/>
      <point x="43" y="722"/>
      <point x="43" y="722"/>
      <point x="43" y="722" type="curve"/>
      <point x="43" y="700"/>
      <point x="43" y="722"/>
      <point x="43" y="700" type="curve"/>
      <point x="43" y="700"/>
      <point x="43" y="700"/>
      <point x="43" y="700" type="curve"/>
    </contour>
    <contour>
      <point x="43" y="700"/>
      <point x="43" y="722"/>
      <point x="43" y="700" type="curve"/>
      <point x="43" y="700"/>
      <point x="43" y="700"/>
      <point x="43" y="700" type="curve"/>
      <point x="43" y="722"/>
      <point x="43" y="700"/>
      <point x="43" y="722" type="curve"/>
      <point x="43" y="722"/>
      <point x="43" y="722"/>
      <point x="43" y="722" type="curve"/>
    </contour>
    <contour>
      <point x="43" y="0"/>
      <point x="43" y="22"/>
      <point x="43" y="0" type="curve"/>
      <point x="43" y="0"/>
      <point x="43" y="0"/>
      <point x="43" y="0" type="curve"/>
      <point x="43" y="22"/>
      <point x="43" y="0"/>
      <point x="43" y="22" type="curve"/>
      <point x="43" y="22"/>
      <point x="43" y="22"/>
      <point x="43" y="22" type="curve"/>
    </contour>
    <contour>
      <point x="43" y="22"/>
      <point x="43" y="0"/>
      <point x="43" y="22" type="curve"/>
      <point x="43" y="22"/>
      <point x="43" y="22"/>
      <point x="43" y="22" type="curve"/>
      <point x="43" y="0"/>
      <point x="43" y="22"/>
      <point x="43" y="0" type="curve"/>
      <point x="43" y="0"/>
      <point x="43" y="0"/>
      <point x="43" y="0" type="curve"/>
    </contour>
    <contour>
      <point x="54" y="0"/>
      <point x="30" y="0"/>
      <point x="54" y="0" type="curve"/>
      <point x="54" y="241"/>
      <point x="54" y="481"/>
      <point x="54" y="722" type="curve"/>
      <point x="30" y="722"/>
      <point x="54" y="722"/>
      <point x="30" y="722" type="curve"/>
      <point x="30" y="481"/>
      <point x="30" y="241"/>
      <point x="30" y="0" type="curve"/>
    </contour>
  </outline>
</glyph>
<glyph name="K" format="1">
  <advance width="408"/>
  <unicode hex="004B"/>
  <outline>
    <contour>
      <point x="345" y="22"/>
      <point x="344" y="0"/>
      <point x="345" y="22" type="curve"/>
      <point x="344" y="22"/>
      <point x="345" y="22"/>
      <point x="344" y="22" type="curve"/>
      <point x="344" y="0"/>
      <point x="344" y="22"/>
      <point x="344" y="0" type="curve"/>
      <point x="344" y="0"/>
      <point x="343" y="0"/>
      <point x="344" y="0" type="curve"/>
    </contour>
    <contour>
      <point x="328" y="722"/>
      <point x="328" y="700"/>
      <point x="328" y="722" type="curve"/>
      <point x="328" y="722"/>
      <point x="328" y="722"/>
      <point x="328" y="722" type="curve"/>
      <point x="328" y="700"/>
      <point x="328" y="722"/>
      <point x="328" y="700" type="curve"/>
      <point x="328" y="700"/>
      <point x="328" y="700"/>
      <point x="328" y="700" type="curve"/>
    </contour>
    <contour>
      <point x="344" y="0"/>
      <point x="344" y="22"/>
      <point x="344" y="0" type="curve"/>
      <point x="344" y="0"/>
      <point x="344" y="0"/>
      <point x="344" y="0" type="curve"/>
      <point x="344" y="22"/>
      <point x="344" y="0"/>
      <point x="344" y="22" type="curve"/>
      <point x="344" y="22"/>
      <point x="344" y="22"/>
      <point x="344" y="22" type="curve"/>
    </contour>
    <contour>
      <point x="328" y="700"/>
      <point x="328" y="722"/>
      <point x="328" y="700" type="curve"/>
      <point x="328" y="700"/>
      <point x="328" y="700"/>
      <point x="328" y="700" type="curve"/>
      <point x="328" y="722"/>
      <point x="328" y="700"/>
      <point x="328" y="722" type="curve"/>
      <point x="328" y="722"/>
      <point x="328" y="722"/>
      <point x="328" y="722" type="curve"/>
    </contour>
    <contour>
      <point x="42" y="722"/>
      <point x="42" y="700"/>
      <point x="42" y="722" type="curve"/>
      <point x="42" y="722"/>
      <point x="42" y="722"/>
      <point x="42" y="722" type="curve"/>
      <point x="42" y="700"/>
      <point x="42" y="722"/>
      <point x="42" y="700" type="curve"/>
      <point x="42" y="700"/>
      <point x="42" y="700"/>
      <point x="42" y="700" type="curve"/>
    </contour>
    <contour>
      <point x="42" y="700"/>
      <point x="42" y="722"/>
      <point x="42" y="700" type="curve"/>
      <point x="42" y="700"/>
      <point x="42" y="700"/>
      <point x="42" y="700" type="curve"/>
      <point x="42" y="722"/>
      <point x="42" y="700"/>
      <point x="42" y="722" type="curve"/>
      <point x="42" y="722"/>
      <point x="42" y="722"/>
      <point x="42" y="722" type="curve"/>
    </contour>
    <contour>
      <point x="42" y="0"/>
      <point x="42" y="22"/>
      <point x="42" y="0" type="curve"/>
      <point x="42" y="0"/>
      <point x="42" y="0"/>
      <point x="42" y="0" type="curve"/>
      <point x="42" y="22"/>
      <point x="42" y="0"/>
      <point x="42" y="22" type="curve"/>
      <point x="42" y="22"/>
      <point x="42" y="22"/>
      <point x="42" y="22" type="curve"/>
    </contour>
    <contour>
      <point x="42" y="22"/>
      <point x="42" y="0"/>
      <point x="42" y="22" type="curve"/>
      <point x="42" y="22"/>
      <point x="42" y="22"/>
      <point x="42" y="22" type="curve"/>
      <point x="42" y="0"/>
      <point x="42" y="22"/>
      <point x="42" y="0" type="curve"/>
      <point x="42" y="0"/>
      <point x="42" y="0"/>
      <point x="42" y="0" type="curve"/>
    </contour>
    <contour>
      <point x="321" y="722"/>
      <point x="361" y="722"/>
      <point x="321" y="722" type="curve"/>
      <point x="227" y="608"/>
      <point x="133" y="494"/>
      <point x="39" y="380" type="curve"/>
      <point x="73" y="380"/>
      <point x="39" y="380"/>
      <point x="73" y="380" type="curve"/>
      <point x="169" y="494"/>
      <point x="265" y="608"/>
      <point x="361" y="722" type="curve"/>
    </contour>
    <contour>
      <point x="54" y="0"/>
      <point x="30" y="0"/>
      <point x="54" y="0" type="curve"/>
      <point x="54" y="0"/>
      <point x="54" y="722"/>
      <point x="54" y="722" type="curve"/>
      <point x="30" y="722"/>
      <point x="54" y="722"/>
      <point x="30" y="722" type="curve"/>
      <point x="30" y="481"/>
      <point x="30" y="241"/>
      <point x="30" y="0" type="curve"/>
    </contour>
    <contour>
      <point x="378" y="0"/>
      <point x="337" y="0"/>
      <point x="378" y="0" type="curve"/>
      <point x="276" y="127"/>
      <point x="174" y="253"/>
      <point x="73" y="380" type="curve"/>
      <point x="39" y="380"/>
      <point x="73" y="380"/>
      <point x="39" y="380" type="curve"/>
      <point x="138" y="254"/>
      <point x="237" y="126"/>
      <point x="337" y="0" type="curve"/>
    </contour>
  </outline>
</glyph>
<glyph name="L" format="1">
  <advance width="367"/>
  <unicode hex="004C"/>
  <outline>
    <contour>
      <point x="337" y="11"/>
      <point x="315" y="11"/>
      <point x="337" y="11" type="curve"/>
      <point x="337" y="11"/>
      <point x="337" y="11"/>
      <point x="337" y="11" type="curve"/>
      <point x="315" y="11"/>
      <point x="337" y="11"/>
      <point x="315" y="11" type="curve"/>
      <point x="315" y="11"/>
      <point x="315" y="11"/>
      <point x="315" y="11" type="curve"/>
    </contour>
    <contour>
      <point x="41" y="22"/>
      <point x="41" y="0"/>
      <point x="41" y="22" type="curve"/>
      <point x="41" y="22"/>
      <point x="41" y="22"/>
      <point x="41" y="22" type="curve"/>
      <point x="41" y="0"/>
      <point x="41" y="22"/>
      <point x="41" y="0" type="curve"/>
      <point x="41" y="0"/>
      <point x="41" y="0"/>
      <point x="41" y="0" type="curve"/>
    </contour>
    <contour>
      <point x="41" y="722"/>
      <point x="41" y="700"/>
      <point x="41" y="722" type="curve"/>
      <point x="41" y="722"/>
      <point x="41" y="722"/>
      <point x="41" y="722" type="curve"/>
      <point x="41" y="700"/>
      <point x="41" y="722"/>
      <point x="41" y="700" type="curve"/>
      <point x="41" y="700"/>
      <point x="41" y="700"/>
      <point x="41" y="700" type="curve"/>
    </contour>
    <contour>
      <point x="41" y="700"/>
      <point x="41" y="722"/>
      <point x="41" y="700" type="curve"/>
      <point x="41" y="700"/>
      <point x="41" y="700"/>
      <point x="41" y="700" type="curve"/>
      <point x="41" y="722"/>
      <point x="41" y="700"/>
      <point x="41" y="722" type="curve"/>
      <point x="41" y="722"/>
      <point x="41" y="722"/>
      <point x="41" y="722" type="curve"/>
    </contour>
    <contour>
      <point x="54" y="0"/>
      <point x="30" y="0"/>
      <point x="54" y="0" type="curve"/>
      <point x="54" y="241"/>
      <point x="54" y="481"/>
      <point x="54" y="722" type="curve"/>
      <point x="30" y="722"/>
      <point x="54" y="722"/>
      <point x="30" y="722" type="curve"/>
      <point x="30" y="481"/>
      <point x="30" y="241"/>
      <point x="30" y="0" type="curve"/>
    </contour>
    <contour>
      <point x="41" y="0"/>
      <point x="41" y="22"/>
      <point x="41" y="0" type="curve"/>
      <point x="140" y="0"/>
      <point x="238" y="0"/>
      <point x="337" y="0" type="curve"/>
      <point x="337" y="22"/>
      <point x="337" y="0"/>
      <point x="337" y="22" type="curve"/>
      <point x="238" y="22"/>
      <point x="140" y="22"/>
      <point x="41" y="22" type="curve"/>
    </contour>
  </outline>
</glyph>
<glyph name="M" format="1">
  <advance width="567"/>
  <unicode hex="004D"/>
  <outline>
    <contour>
      <point x="525" y="0"/>
      <point x="525" y="22"/>
      <point x="525" y="0" type="curve"/>
      <point x="525" y="0"/>
      <point x="525" y="0"/>
      <point x="525" y="0" type="curve"/>
      <point x="525" y="22"/>
      <point x="525" y="0"/>
      <point x="525" y="22" type="curve"/>
      <point x="525" y="22"/>
      <point x="525" y="22"/>
      <point x="525" y="22" type="curve"/>
    </contour>
    <contour>
      <point x="525" y="22"/>
      <point x="525" y="0"/>
      <point x="525" y="22" type="curve"/>
      <point x="525" y="22"/>
      <point x="525" y="22"/>
      <point x="525" y="22" type="curve"/>
      <point x="525" y="0"/>
      <point x="525" y="22"/>
      <point x="525" y="0" type="curve"/>
      <point x="525" y="0"/>
      <point x="525" y="0"/>
      <point x="525" y="0" type="curve"/>
    </contour>
    <contour>
      <point x="43" y="22"/>
      <point x="43" y="0"/>
      <point x="43" y="22" type="curve"/>
      <point x="43" y="22"/>
      <point x="43" y="22"/>
      <point x="43" y="22" type="curve"/>
      <point x="43" y="0"/>
      <point x="43" y="22"/>
      <point x="43" y="0" type="curve"/>
      <point x="43" y="0"/>
      <point x="43" y="0"/>
      <point x="43" y="0" type="curve"/>
    </contour>
    <contour>
      <point x="84" y="722"/>
      <point x="84" y="700"/>
      <point x="84" y="722" type="curve"/>
      <point x="84" y="722"/>
      <point x="84" y="722"/>
      <point x="84" y="722" type="curve"/>
      <point x="84" y="700"/>
      <point x="84" y="722"/>
      <point x="84" y="700" type="curve"/>
      <point x="84" y="700"/>
      <point x="84" y="700"/>
      <point x="84" y="700" type="curve"/>
    </contour>
    <contour>
      <point x="482" y="700"/>
      <point x="482" y="722"/>
      <point x="482" y="700" type="curve"/>
      <point x="482" y="700"/>
      <point x="482" y="700"/>
      <point x="482" y="700" type="curve"/>
      <point x="482" y="722"/>
      <point x="482" y="700"/>
      <point x="482" y="722" type="curve"/>
      <point x="482" y="722"/>
      <point x="482" y="722"/>
      <point x="482" y="722" type="curve"/>
    </contour>
    <contour>
      <point x="43" y="0"/>
      <point x="43" y="22"/>
      <point x="43" y="0" type="curve"/>
      <point x="43" y="0"/>
      <point x="43" y="0"/>
      <point x="43" y="0" type="curve"/>
      <point x="43" y="22"/>
      <point x="43" y="0"/>
      <point x="43" y="22" type="curve"/>
      <point x="43" y="22"/>
      <point x="43" y="22"/>
      <point x="43" y="22" type="curve"/>
    </contour>
    <contour>
      <point x="537" y="0"/>
      <point x="512" y="0"/>
      <point x="537" y="0" type="curve"/>
      <point x="522" y="241"/>
      <point x="507" y="481"/>
      <point x="493" y="722" type="curve"/>
      <point x="471" y="722"/>
      <point x="493" y="722"/>
      <point x="471" y="722" type="curve"/>
      <point x="485" y="481"/>
      <point x="498" y="241"/>
      <point x="512" y="0" type="curve"/>
    </contour>
    <contour>
      <point x="54" y="0"/>
      <point x="30" y="0"/>
      <point x="54" y="0" type="curve"/>
      <point x="67" y="241"/>
      <point x="81" y="481"/>
      <point x="94" y="722" type="curve"/>
      <point x="72" y="722"/>
      <point x="94" y="722"/>
      <point x="72" y="722" type="curve"/>
      <point x="58" y="481"/>
      <point x="44" y="241"/>
      <point x="30" y="0" type="curve"/>
    </contour>
    <contour>
      <point x="293" y="0"/>
      <point x="269" y="0"/>
      <point x="293" y="0" type="curve"/>
      <point x="227" y="241"/>
      <point x="161" y="481"/>
      <point x="95" y="722" type="curve"/>
      <point x="73" y="722"/>
      <point x="95" y="722"/>
      <point x="73" y="722" type="curve"/>
      <point x="138" y="481"/>
      <point x="203" y="241"/>
      <point x="269" y="0" type="curve"/>
    </contour>
    <contour>
      <point x="299" y="0"/>
      <point x="274" y="0"/>
      <point x="299" y="0" type="curve"/>
      <point x="363" y="241"/>
      <point x="427" y="481"/>
      <point x="491" y="722" type="curve"/>
      <point x="469" y="722"/>
      <point x="491" y="722"/>
      <point x="469" y="722" type="curve"/>
      <point x="404" y="481"/>
      <point x="339" y="241"/>
      <point x="274" y="0" type="curve"/>
    </contour>
  </outline>
</glyph>
<glyph name="N" format="1">
  <advance width="464"/>
  <unicode hex="004E"/>
  <outline>
    <contour>
      <point x="44" y="722"/>
      <point x="44" y="700"/>
      <point x="44" y="722" type="curve"/>
      <point x="44" y="722"/>
      <point x="44" y="722"/>
      <point x="44" y="722" type="curve"/>
      <point x="44" y="700"/>
      <point x="44" y="722"/>
      <point x="44" y="700" type="curve"/>
      <point x="44" y="700"/>
      <point x="44" y="700"/>
      <point x="44" y="700" type="curve"/>
    </contour>
    <contour>
      <point x="421" y="700"/>
      <point x="421" y="722"/>
      <point x="421" y="700" type="curve"/>
      <point x="421" y="700"/>
      <point x="421" y="700"/>
      <point x="421" y="700" type="curve"/>
      <point x="421" y="722"/>
      <point x="421" y="700"/>
      <point x="421" y="722" type="curve"/>
      <point x="421" y="722"/>
      <point x="421" y="722"/>
      <point x="421" y="722" type="curve"/>
    </contour>
    <contour>
      <point x="421" y="722"/>
      <point x="421" y="700"/>
      <point x="421" y="722" type="curve"/>
      <point x="421" y="722"/>
      <point x="421" y="722"/>
      <point x="421" y="722" type="curve"/>
      <point x="421" y="700"/>
      <point x="421" y="722"/>
      <point x="421" y="700" type="curve"/>
      <point x="421" y="700"/>
      <point x="421" y="700"/>
      <point x="421" y="700" type="curve"/>
    </contour>
    <contour>
      <point x="43" y="22"/>
      <point x="43" y="0"/>
      <point x="43" y="22" type="curve"/>
      <point x="43" y="22"/>
      <point x="43" y="22"/>
      <point x="43" y="22" type="curve"/>
      <point x="43" y="0"/>
      <point x="43" y="22"/>
      <point x="43" y="0" type="curve"/>
      <point x="43" y="0"/>
      <point x="43" y="0"/>
      <point x="43" y="0" type="curve"/>
    </contour>
    <contour>
      <point x="43" y="0"/>
      <point x="43" y="22"/>
      <point x="43" y="0" type="curve"/>
      <point x="43" y="0"/>
      <point x="43" y="0"/>
      <point x="43" y="0" type="curve"/>
      <point x="43" y="22"/>
      <point x="43" y="0"/>
      <point x="43" y="22" type="curve"/>
      <point x="43" y="22"/>
      <point x="43" y="22"/>
      <point x="43" y="22" type="curve"/>
    </contour>
    <contour>
      <point x="434" y="0"/>
      <point x="404" y="0"/>
      <point x="434" y="0" type="curve"/>
      <point x="309" y="241"/>
      <point x="184" y="481"/>
      <point x="59" y="722" type="curve"/>
      <point x="30" y="722"/>
      <point x="59" y="722"/>
      <point x="30" y="722" type="curve"/>
      <point x="155" y="481"/>
      <point x="280" y="241"/>
      <point x="404" y="0" type="curve"/>
    </contour>
    <contour>
      <point x="409" y="722"/>
      <point x="433" y="722"/>
      <point x="409" y="722" type="curve"/>
      <point x="409" y="481"/>
      <point x="409" y="241"/>
      <point x="409" y="0" type="curve"/>
      <point x="433" y="0"/>
      <point x="409" y="0"/>
      <point x="433" y="0" type="curve"/>
      <point x="433" y="241"/>
      <point x="433" y="481"/>
      <point x="433" y="722" type="curve"/>
    </contour>
    <contour>
      <point x="55" y="0"/>
      <point x="31" y="0"/>
      <point x="55" y="0" type="curve"/>
      <point x="55" y="241"/>
      <point x="55" y="481"/>
      <point x="55" y="722" type="curve"/>
      <point x="31" y="722"/>
      <point x="55" y="722"/>
      <point x="31" y="722" type="curve"/>
      <point x="31" y="481"/>
      <point x="31" y="241"/>
      <point x="31" y="0" type="curve"/>
    </contour>
  </outline>
</glyph>
<glyph name="R" format="1">
  <advance width="410"/>
  <unicode hex="0052"/>
  <outline>
    <contour>
      <point x="356" y="0"/>
      <point x="356" y="22"/>
      <point x="356" y="0" type="curve"/>
      <point x="356" y="0"/>
      <point x="356" y="0"/>
      <point x="356" y="0" type="curve"/>
      <point x="356" y="22"/>
      <point x="356" y="0"/>
      <point x="356" y="22" type="curve"/>
      <point x="356" y="22"/>
      <point x="356" y="22"/>
      <point x="356" y="22" type="curve"/>
    </contour>
    <contour>
      <point x="41" y="722"/>
      <point x="41" y="700"/>
      <point x="41" y="722" type="curve"/>
      <point x="41" y="722"/>
      <point x="41" y="722"/>
      <point x="41" y="722" type="curve"/>
      <point x="41" y="700"/>
      <point x="41" y="722"/>
      <point x="41" y="700" type="curve"/>
      <point x="41" y="700"/>
      <point x="41" y="700"/>
      <point x="41" y="700" type="curve"/>
    </contour>
    <contour>
      <point x="41" y="22"/>
      <point x="41" y="0"/>
      <point x="41" y="22" type="curve"/>
      <point x="41" y="22"/>
      <point x="41" y="22"/>
      <point x="41" y="22" type="curve"/>
      <point x="41" y="0"/>
      <point x="41" y="22"/>
      <point x="41" y="0" type="curve"/>
      <point x="41" y="0"/>
      <point x="41" y="0"/>
      <point x="41" y="0" type="curve"/>
    </contour>
    <contour>
      <point x="41" y="0"/>
      <point x="41" y="22"/>
      <point x="41" y="0" type="curve"/>
      <point x="41" y="0"/>
      <point x="41" y="0"/>
      <point x="41" y="0" type="curve"/>
      <point x="41" y="22"/>
      <point x="41" y="0"/>
      <point x="41" y="22" type="curve"/>
      <point x="41" y="22"/>
      <point x="41" y="22"/>
      <point x="41" y="22" type="curve"/>
    </contour>
    <contour>
      <point x="172" y="354"/>
      <point x="201" y="354"/>
      <point x="172" y="354" type="curve"/>
      <point x="232" y="236"/>
      <point x="292" y="118"/>
      <point x="351" y="0" type="curve"/>
      <point x="380" y="0"/>
      <point x="351" y="0"/>
      <point x="380" y="0" type="curve"/>
      <point x="321" y="118"/>
      <point x="261" y="236"/>
      <point x="201" y="354" type="curve"/>
    </contour>
    <contour>
      <point x="54" y="0"/>
      <point x="30" y="0"/>
      <point x="54" y="0" type="curve"/>
      <point x="54" y="241"/>
      <point x="54" y="481"/>
      <point x="54" y="722" type="curve"/>
      <point x="30" y="722"/>
      <point x="54" y="722"/>
      <point x="30" y="722" type="curve"/>
      <point x="30" y="481"/>
      <point x="30" y="241"/>
      <point x="30" y="0" type="curve"/>
    </contour>
    <contour>
      <point x="44" y="340"/>
      <point x="44" y="362"/>
      <point x="44" y="340" type="curve"/>
      <point x="83" y="340"/>
      <point x="122" y="340"/>
      <point x="162" y="340" type="curve"/>
      <point x="270" y="340"/>
      <point x="320" y="420"/>
      <point x="320" y="537" type="curve"/>
      <point x="320" y="647"/>
      <point x="272" y="722"/>
      <point x="169" y="722" type="curve"/>
      <point x="127" y="722"/>
      <point x="85" y="722"/>
      <point x="44" y="722" type="curve"/>
      <point x="44" y="700"/>
      <point x="44" y="722"/>
      <point x="44" y="700" type="curve"/>
      <point x="84" y="700"/>
      <point x="124" y="700"/>
      <point x="165" y="700" type="curve"/>
      <point x="255" y="700"/>
      <point x="295" y="632"/>
      <point x="295" y="535" type="curve"/>
      <point x="295" y="434"/>
      <point x="257" y="362"/>
      <point x="165" y="362" type="curve"/>
      <point x="125" y="362"/>
      <point x="84" y="362"/>
      <point x="44" y="362" type="curve"/>
    </contour>
  </outline>
</glyph>
<glyph name="T" format="1">
  <advance width="494"/>
  <unicode hex="0054"/>
  <outline>
    <contour>
      <point x="30" y="710"/>
      <point x="52" y="710"/>
      <point x="30" y="710" type="curve"/>
      <point x="30" y="710"/>
      <point x="30" y="710"/>
      <point x="30" y="710" type="curve"/>
      <point x="52" y="710"/>
      <point x="30" y="710"/>
      <point x="52" y="710" type="curve"/>
      <point x="52" y="710"/>
      <point x="52" y="710"/>
      <point x="52" y="710" type="curve"/>
    </contour>
    <contour>
      <point x="442" y="710"/>
      <point x="464" y="710"/>
      <point x="442" y="710" type="curve"/>
      <point x="442" y="710"/>
      <point x="442" y="710"/>
      <point x="442" y="710" type="curve"/>
      <point x="464" y="710"/>
      <point x="442" y="710"/>
      <point x="464" y="710" type="curve"/>
      <point x="464" y="710"/>
      <point x="464" y="710"/>
      <point x="464" y="710" type="curve"/>
    </contour>
    <contour>
      <point x="246" y="0"/>
      <point x="246" y="22"/>
      <point x="246" y="0" type="curve"/>
      <point x="246" y="0"/>
      <point x="246" y="0"/>
      <point x="246" y="0" type="curve"/>
      <point x="246" y="22"/>
      <point x="246" y="0"/>
      <point x="246" y="22" type="curve"/>
      <point x="246" y="22"/>
      <point x="246" y="22"/>
      <point x="246" y="22" type="curve"/>
    </contour>
    <contour>
      <point x="246" y="22"/>
      <point x="246" y="0"/>
      <point x="246" y="22" type="curve"/>
      <point x="246" y="22"/>
      <point x="246" y="22"/>
      <point x="246" y="22" type="curve"/>
      <point x="246" y="0"/>
      <point x="246" y="22"/>
      <point x="246" y="0" type="curve"/>
      <point x="246" y="0"/>
      <point x="246" y="0"/>
      <point x="246" y="0" type="curve"/>
    </contour>
    <contour>
      <point x="259" y="0"/>
      <point x="235" y="0"/>
      <point x="259" y="0" type="curve"/>
      <point x="259" y="237"/>
      <point x="259" y="473"/>
      <point x="259" y="710" type="curve"/>
      <point x="235" y="710"/>
      <point x="259" y="710"/>
      <point x="235" y="710" type="curve"/>
      <point x="235" y="473"/>
      <point x="235" y="237"/>
      <point x="235" y="0" type="curve"/>
    </contour>
    <contour>
      <point x="30" y="698"/>
      <point x="30" y="722"/>
      <point x="30" y="698" type="curve"/>
      <point x="175" y="698"/>
      <point x="319" y="698"/>
      <point x="464" y="698" type="curve"/>
      <point x="464" y="722"/>
      <point x="464" y="698"/>
      <point x="464" y="722" type="curve"/>
      <point x="319" y="722"/>
      <point x="175" y="722"/>
      <point x="30" y="722" type="curve"/>
    </contour>
  </outline>
</glyph>
<glyph name="V" format="1">
  <advance width="483"/>
  <unicode hex="0056"/>
  <outline>
    <contour>
      <point x="431" y="722"/>
      <point x="431" y="700"/>
      <point x="431" y="722" type="curve"/>
      <point x="385" y="722"/>
      <point x="476" y="722"/>
      <point x="430" y="722" type="curve"/>
      <point x="430" y="700"/>
      <point x="430" y="722"/>
      <point x="430" y="700" type="curve"/>
      <point x="568" y="700"/>
      <point x="293" y="700"/>
      <point x="431" y="700" type="curve"/>
    </contour>
    <contour>
      <point x="52" y="722"/>
      <point x="52" y="700"/>
      <point x="52" y="722" type="curve"/>
      <point x="52" y="722"/>
      <point x="52" y="722"/>
      <point x="52" y="722" type="curve"/>
      <point x="52" y="700"/>
      <point x="52" y="722"/>
      <point x="52" y="700" type="curve"/>
      <point x="52" y="700"/>
      <point x="52" y="700"/>
      <point x="52" y="700" type="curve"/>
    </contour>
    <contour>
      <point x="431" y="700"/>
      <point x="431" y="722"/>
      <point x="431" y="700" type="curve"/>
      <point x="431" y="700"/>
      <point x="431" y="700"/>
      <point x="431" y="700" type="curve"/>
      <point x="431" y="722"/>
      <point x="431" y="700"/>
      <point x="431" y="722" type="curve"/>
      <point x="431" y="722"/>
      <point x="431" y="722"/>
      <point x="431" y="722" type="curve"/>
    </contour>
    <contour>
      <point x="52" y="700"/>
      <point x="52" y="722"/>
      <point x="52" y="700" type="curve"/>
      <point x="189" y="700"/>
      <point x="-84" y="700"/>
      <point x="53" y="700" type="curve"/>
      <point x="53" y="722"/>
      <point x="53" y="700"/>
      <point x="53" y="722" type="curve"/>
      <point x="7" y="722"/>
      <point x="97" y="722"/>
      <point x="52" y="722" type="curve"/>
    </contour>
    <contour>
      <point x="426" y="722"/>
      <point x="452" y="722"/>
      <point x="426" y="722" type="curve"/>
      <point x="361" y="481"/>
      <point x="296" y="241"/>
      <point x="231" y="0" type="curve"/>
      <point x="259" y="0"/>
      <point x="231" y="0"/>
      <point x="259" y="0" type="curve"/>
      <point x="323" y="241"/>
      <point x="388" y="481"/>
      <point x="452" y="722" type="curve"/>
    </contour>
    <contour>
      <point x="30" y="722"/>
      <point x="56" y="722"/>
      <point x="30" y="722" type="curve"/>
      <point x="96" y="481"/>
      <point x="162" y="241"/>
      <point x="227" y="0" type="curve"/>
      <point x="254" y="0"/>
      <point x="227" y="0"/>
      <point x="254" y="0" type="curve"/>
      <point x="188" y="241"/>
      <point x="122" y="481"/>
      <point x="56" y="722" type="curve"/>
    </contour>
  </outline>
</glyph>
<glyph name="Z" format="1">
  <advance width="472"/>
  <unicode hex="005A"/>
  <outline>
    <contour>
      <point x="61" y="711"/>
      <point x="83" y="711"/>
      <point x="61" y="711" type="curve"/>
      <point x="61" y="711"/>
      <point x="61" y="711"/>
      <point x="61" y="711" type="curve"/>
      <point x="83" y="711"/>
      <point x="61" y="711"/>
      <point x="83" y="711" type="curve"/>
      <point x="83" y="711"/>
      <point x="83" y="711"/>
      <point x="83" y="711" type="curve"/>
    </contour>
    <contour>
      <point x="442" y="11"/>
      <point x="420" y="11"/>
      <point x="442" y="11" type="curve"/>
      <point x="442" y="11"/>
      <point x="442" y="11"/>
      <point x="442" y="11" type="curve"/>
      <point x="420" y="11"/>
      <point x="442" y="11"/>
      <point x="420" y="11" type="curve"/>
      <point x="420" y="11"/>
      <point x="420" y="11"/>
      <point x="420" y="11" type="curve"/>
    </contour>
    <contour>
      <point x="61" y="700"/>
      <point x="61" y="722"/>
      <point x="61" y="700" type="curve"/>
      <point x="175" y="700"/>
      <point x="288" y="700"/>
      <point x="401" y="700" type="curve"/>
      <point x="399" y="703"/>
      <point x="396" y="705"/>
      <point x="394" y="707" type="curve"/>
      <point x="392" y="708"/>
      <point x="392" y="711"/>
      <point x="390" y="712" type="curve"/>
      <point x="387" y="708"/>
      <point x="385" y="705"/>
      <point x="382" y="701" type="curve"/>
      <point x="265" y="475"/>
      <point x="382" y="701"/>
      <point x="30" y="22" type="curve"/>
      <point x="30" y="10"/>
      <point x="30" y="22"/>
      <point x="30" y="10" type="curve"/>
      <point x="30" y="0"/>
      <point x="30" y="10"/>
      <point x="30" y="0" type="curve"/>
      <point x="37" y="0"/>
      <point x="30" y="0"/>
      <point x="37" y="0" type="curve"/>
      <point x="442" y="0"/>
      <point x="307" y="0"/>
      <point x="442" y="0" type="curve"/>
      <point x="442" y="22"/>
      <point x="442" y="0"/>
      <point x="442" y="22" type="curve"/>
      <point x="307" y="22"/>
      <point x="172" y="22"/>
      <point x="37" y="22" type="curve"/>
      <point x="39" y="20"/>
      <point x="41" y="18"/>
      <point x="43" y="16" type="curve"/>
      <point x="46" y="15"/>
      <point x="46" y="11"/>
      <point x="49" y="10" type="curve"/>
      <point x="51" y="14"/>
      <point x="54" y="17"/>
      <point x="57" y="21" type="curve"/>
      <point x="174" y="247"/>
      <point x="57" y="21"/>
      <point x="409" y="700" type="curve"/>
      <point x="409" y="712"/>
      <point x="409" y="700"/>
      <point x="409" y="712" type="curve"/>
      <point x="409" y="722"/>
      <point x="409" y="712"/>
      <point x="409" y="722" type="curve"/>
      <point x="401" y="722"/>
      <point x="409" y="722"/>
      <point x="401" y="722" type="curve"/>
      <point x="288" y="722"/>
      <point x="175" y="722"/>
      <point x="61" y="722" type="curve"/>
    </contour>
  </outline>
</glyph>
<glyph name="l" format="1">
  <advance width="84"/>
  <unicode hex="006C"/>
  <outline>
    <contour>
      <point x="43" y="22"/>
      <point x="43" y="0"/>
      <point x="43" y="22" type="curve"/>
      <point x="43" y="22"/>
      <point x="43" y="22"/>
      <point x="43" y="22" type="curve"/>
      <point x="43" y="0"/>
      <point x="43" y="22"/>
      <point x="43" y="0" type="curve"/>
      <point x="43" y="0"/>
      <point x="43" y="0"/>
      <point x="43" y="0" type="curve"/>
    </contour>
    <contour>
      <point x="44" y="800"/>
      <point x="44" y="778"/>
      <point x="44" y="800" type="curve"/>
      <point x="44" y="800"/>
      <point x="44" y="800"/>
      <point x="44" y="800" type="curve"/>
      <point x="44" y="778"/>
      <point x="44" y="800"/>
      <point x="44" y="778" type="curve"/>
      <point x="44" y="778"/>
      <point x="44" y="778"/>
      <point x="44" y="778" type="curve"/>
    </contour>
    <contour>
      <point x="43" y="0"/>
      <point x="43" y="22"/>
      <point x="43" y="0" type="curve"/>
      <point x="43" y="0"/>
      <point x="43" y="0"/>
      <point x="43" y="0" type="curve"/>
      <point x="43" y="22"/>
      <point x="43" y="0"/>
      <point x="43" y="22" type="curve"/>
      <point x="43" y="22"/>
      <point x="43" y="22"/>
      <point x="43" y="22" type="curve"/>
    </contour>
    <contour>
      <point x="54" y="0"/>
      <point x="30" y="0"/>
      <point x="54" y="0" type="curve"/>
      <point x="54" y="267"/>
      <point x="54" y="533"/>
      <point x="54" y="800" type="curve"/>
      <point x="30" y="800"/>
      <point x="54" y="800"/>
      <point x="30" y="800" type="curve"/>
      <point x="30" y="533"/>
      <point x="30" y="267"/>
      <point x="30" y="0" type="curve"/>
    </contour>
  </outline>
</glyph>
<glyph name="m" format="1">
  <advance width="549"/>
  <unicode hex="006D"/>
  <outline>
    <contour>
      <point x="275" y="0"/>
      <point x="275" y="22"/>
      <point x="275" y="0" type="curve"/>
      <point x="275" y="0"/>
      <point x="275" y="0"/>
      <point x="275" y="0" type="curve"/>
      <point x="275" y="22"/>
      <point x="275" y="0"/>
      <point x="275" y="22" type="curve"/>
      <point x="275" y="22"/>
      <point x="275" y="22"/>
      <point x="275" y="22" type="curve"/>
    </contour>
    <contour>
      <point x="275" y="22"/>
      <point x="275" y="0"/>
      <point x="275" y="22" type="curve"/>
      <point x="275" y="22"/>
      <point x="275" y="22"/>
      <point x="275" y="22" type="curve"/>
      <point x="275" y="0"/>
      <point x="275" y="22"/>
      <point x="275" y="0" type="curve"/>
      <point x="275" y="0"/>
      <point x="275" y="0"/>
      <point x="275" y="0" type="curve"/>
    </contour>
    <contour>
      <point x="508" y="0"/>
      <point x="508" y="22"/>
      <point x="508" y="0" type="curve"/>
      <point x="508" y="0"/>
      <point x="508" y="0"/>
      <point x="508" y="0" type="curve"/>
      <point x="508" y="22"/>
      <point x="508" y="0"/>
      <point x="508" y="22" type="curve"/>
      <point x="508" y="22"/>
      <point x="508" y="22"/>
      <point x="508" y="22" type="curve"/>
    </contour>
    <contour>
      <point x="42" y="22"/>
      <point x="42" y="0"/>
      <point x="42" y="22" type="curve"/>
      <point x="42" y="22"/>
      <point x="42" y="22"/>
      <point x="42" y="22" type="curve"/>
      <point x="42" y="0"/>
      <point x="42" y="22"/>
      <point x="42" y="0" type="curve"/>
      <point x="42" y="0"/>
      <point x="42" y="0"/>
      <point x="42" y="0" type="curve"/>
    </contour>
    <contour>
      <point x="42" y="0"/>
      <point x="42" y="22"/>
      <point x="42" y="0" type="curve"/>
      <point x="42" y="0"/>
      <point x="42" y="0"/>
      <point x="42" y="0" type="curve"/>
      <point x="42" y="22"/>
      <point x="42" y="0"/>
      <point x="42" y="22" type="curve"/>
      <point x="42" y="22"/>
      <point x="42" y="22"/>
      <point x="42" y="22" type="curve"/>
    </contour>
    <contour>
      <point x="42" y="533"/>
      <point x="42" y="511"/>
      <point x="42" y="533" type="curve"/>
      <point x="42" y="533"/>
      <point x="42" y="533"/>
      <point x="42" y="533" type="curve"/>
      <point x="42" y="511"/>
      <point x="42" y="533"/>
      <point x="42" y="511" type="curve"/>
      <point x="42" y="511"/>
      <point x="42" y="511"/>
      <point x="42" y="511" type="curve"/>
    </contour>
    <contour>
      <point x="508" y="22"/>
      <point x="508" y="0"/>
      <point x="508" y="22" type="curve"/>
      <point x="508" y="22"/>
      <point x="508" y="22"/>
      <point x="508" y="22" type="curve"/>
      <point x="508" y="0"/>
      <point x="508" y="22"/>
      <point x="508" y="0" type="curve"/>
      <point x="508" y="0"/>
      <point x="508" y="0"/>
      <point x="508" y="0" type="curve"/>
    </contour>
    <contour>
      <point x="281" y="354"/>
      <point x="269" y="365"/>
      <point x="281" y="354" type="curve"/>
      <point x="303" y="434"/>
      <point x="328" y="511"/>
      <point x="405" y="511" type="curve"/>
      <point x="493" y="511"/>
      <point x="495" y="443"/>
      <point x="495" y="341" type="curve"/>
      <point x="495" y="228"/>
      <point x="495" y="114"/>
      <point x="495" y="0" type="curve"/>
      <point x="519" y="0"/>
      <point x="495" y="0"/>
      <point x="519" y="0" type="curve"/>
      <point x="519" y="115"/>
      <point x="519" y="229"/>
      <point x="519" y="344" type="curve"/>
      <point x="519" y="458"/>
      <point x="510" y="533"/>
      <point x="411" y="533" type="curve"/>
      <point x="326" y="533"/>
      <point x="286" y="455"/>
      <point x="269" y="365" type="curve"/>
    </contour>
    <contour>
      <point x="49" y="354"/>
      <point x="37" y="365"/>
      <point x="49" y="354" type="curve"/>
      <point x="71" y="435"/>
      <point x="95" y="511"/>
      <point x="173" y="511" type="curve"/>
      <point x="260" y="511"/>
      <point x="262" y="443"/>
      <point x="262" y="341" type="curve"/>
      <point x="262" y="228"/>
      <point x="262" y="114"/>
      <point x="262" y="0" type="curve"/>
      <point x="287" y="0"/>
      <point x="262" y="0"/>
      <point x="287" y="0" type="curve"/>
      <point x="287" y="115"/>
      <point x="287" y="229"/>
      <point x="287" y="344" type="curve"/>
      <point x="287" y="458"/>
      <point x="278" y="533"/>
      <point x="178" y="533" type="curve"/>
      <point x="92" y="533"/>
      <point x="54" y="456"/>
      <point x="37" y="365" type="curve"/>
    </contour>
    <contour>
      <point x="54" y="0"/>
      <point x="30" y="0"/>
      <point x="54" y="0" type="curve"/>
      <point x="54" y="178"/>
      <point x="54" y="355"/>
      <point x="54" y="533" type="curve"/>
      <point x="30" y="533"/>
      <point x="54" y="533"/>
      <point x="30" y="533" type="curve"/>
      <point x="30" y="355"/>
      <point x="30" y="178"/>
      <point x="30" y="0" type="curve"/>
    </contour>
  </outline>
</glyph>
<glyph name="n" format="1">
  <advance width="345"/>
  <unicode hex="006E"/>
  <outline>
    <contour>
      <point x="49" y="354"/>
      <point x="37" y="365"/>
      <point x="49" y="354" type="curve"/>
      <point x="70" y="431"/>
      <point x="111" y="511"/>
      <point x="187" y="511" type="curve"/>
      <point x="272" y="511"/>
      <point x="290" y="438"/>
      <point x="290" y="341" type="curve"/>
      <point x="290" y="228"/>
      <point x="290" y="114"/>
      <point x="290" y="0" type="curve"/>
      <point x="315" y="0"/>
      <point x="290" y="0"/>
      <point x="315" y="0" type="curve"/>
      <point x="315" y="115"/>
      <point x="315" y="229"/>
      <point x="315" y="344" type="curve"/>
      <point x="315" y="453"/>
      <point x="289" y="533"/>
      <point x="192" y="533" type="curve"/>
      <point x="108" y="533"/>
      <point x="53" y="452"/>
      <point x="37" y="365" type="curve"/>
    </contour>
    <contour>
      <point x="302" y="0"/>
      <point x="302" y="22"/>
      <point x="302" y="0" type="curve"/>
      <point x="302" y="0"/>
      <point x="302" y="0"/>
      <point x="302" y="0" type="curve"/>
      <point x="302" y="22"/>
      <point x="302" y="0"/>
      <point x="302" y="22" type="curve"/>
      <point x="302" y="22"/>
      <point x="302" y="22"/>
      <point x="302" y="22" type="curve"/>
    </contour>
    <contour>
      <point x="42" y="22"/>
      <point x="42" y="0"/>
      <point x="42" y="22" type="curve"/>
      <point x="42" y="22"/>
      <point x="42" y="22"/>
      <point x="42" y="22" type="curve"/>
      <point x="42" y="0"/>
      <point x="42" y="22"/>
      <point x="42" y="0" type="curve"/>
      <point x="42" y="0"/>
      <point x="42" y="0"/>
      <point x="42" y="0" type="curve"/>
    </contour>
    <contour>
      <point x="42" y="0"/>
      <point x="42" y="22"/>
      <point x="42" y="0" type="curve"/>
      <point x="42" y="0"/>
      <point x="42" y="0"/>
      <point x="42" y="0" type="curve"/>
      <point x="42" y="22"/>
      <point x="42" y="0"/>
      <point x="42" y="22" type="curve"/>
      <point x="42" y="22"/>
      <point x="42" y="22"/>
      <point x="42" y="22" type="curve"/>
    </contour>
    <contour>
      <point x="54" y="0"/>
      <point x="30" y="0"/>
      <point x="54" y="0" type="curve"/>
      <point x="54" y="178"/>
      <point x="54" y="355"/>
      <point x="54" y="533" type="curve"/>
      <point x="30" y="533"/>
      <point x="54" y="533"/>
      <point x="30" y="533" type="curve"/>
      <point x="30" y="355"/>
      <point x="30" y="178"/>
      <point x="30" y="0" type="curve"/>
    </contour>
    <contour>
      <point x="42" y="533"/>
      <point x="42" y="511"/>
      <point x="42" y="533" type="curve"/>
      <point x="42" y="533"/>
      <point x="42" y="533"/>
      <point x="42" y="533" type="curve"/>
      <point x="42" y="511"/>
      <point x="42" y="533"/>
      <point x="42" y="511" type="curve"/>
      <point x="42" y="511"/>
      <point x="42" y="511"/>
      <point x="42" y="511" type="curve"/>
    </contour>
    <contour>
      <point x="302" y="22"/>
      <point x="302" y="0"/>
      <point x="302" y="22" type="curve"/>
      <point x="302" y="22"/>
      <point x="302" y="22"/>
      <point x="302" y="22" type="curve"/>
      <point x="302" y="0"/>
      <point x="302" y="22"/>
      <point x="302" y="0" type="curve"/>
      <point x="302" y="0"/>
      <point x="302" y="0"/>
      <point x="302" y="0" type="curve"/>
    </contour>
  </outline>
</glyph>
<glyph name="q" format="1">
  <advance width="382"/>
  <unicode hex="0071"/>
  <outline>
    <contour>
      <point x="340" y="511"/>
      <point x="340" y="533"/>
      <point x="340" y="511" type="curve"/>
      <point x="340" y="511"/>
      <point x="340" y="511"/>
      <point x="340" y="511" type="curve"/>
      <point x="340" y="533"/>
      <point x="340" y="511"/>
      <point x="340" y="533" type="curve"/>
      <point x="340" y="533"/>
      <point x="340" y="533"/>
      <point x="340" y="533" type="curve"/>
    </contour>
    <contour>
      <point x="340" y="-279"/>
      <point x="340" y="-300"/>
      <point x="340" y="-279" type="curve"/>
      <point x="340" y="-279"/>
      <point x="340" y="-279"/>
      <point x="340" y="-279" type="curve"/>
      <point x="340" y="-300"/>
      <point x="340" y="-279"/>
      <point x="340" y="-300" type="curve"/>
      <point x="340" y="-300"/>
      <point x="340" y="-300"/>
      <point x="340" y="-300" type="curve"/>
    </contour>
    <contour>
      <point x="340" y="-300"/>
      <point x="340" y="-279"/>
      <point x="340" y="-300" type="curve"/>
      <point x="340" y="-300"/>
      <point x="340" y="-300"/>
      <point x="340" y="-300" type="curve"/>
      <point x="340" y="-279"/>
      <point x="340" y="-300"/>
      <point x="340" y="-279" type="curve"/>
      <point x="340" y="-279"/>
      <point x="340" y="-279"/>
      <point x="340" y="-279" type="curve"/>
    </contour>
    <contour>
      <point x="346" y="444"/>
      <point x="335" y="431"/>
      <point x="346" y="444" type="curve"/>
      <point x="305" y="493"/>
      <point x="253" y="533"/>
      <point x="189" y="533" type="curve"/>
      <point x="63" y="533"/>
      <point x="30" y="409"/>
      <point x="30" y="264" type="curve"/>
      <point x="30" y="120"/>
      <point x="67" y="-1"/>
      <point x="192" y="-1" type="curve"/>
      <point x="263" y="-1"/>
      <point x="315" y="58"/>
      <point x="345" y="121" type="curve"/>
      <point x="332" y="133"/>
      <point x="345" y="121"/>
      <point x="332" y="133" type="curve"/>
      <point x="303" y="74"/>
      <point x="257" y="21"/>
      <point x="192" y="21" type="curve"/>
      <point x="79" y="21"/>
      <point x="54" y="134"/>
      <point x="54" y="265" type="curve"/>
      <point x="54" y="396"/>
      <point x="76" y="511"/>
      <point x="191" y="511" type="curve"/>
      <point x="248" y="511"/>
      <point x="295" y="475"/>
      <point x="335" y="431" type="curve"/>
    </contour>
    <contour>
      <point x="352" y="-300"/>
      <point x="327" y="-300"/>
      <point x="352" y="-300" type="curve"/>
      <point x="352" y="-22"/>
      <point x="352" y="255"/>
      <point x="352" y="533" type="curve"/>
      <point x="327" y="533"/>
      <point x="352" y="533"/>
      <point x="327" y="533" type="curve"/>
      <point x="327" y="255"/>
      <point x="327" y="-22"/>
      <point x="327" y="-300" type="curve"/>
    </contour>
  </outline>
</glyph>
<glyph name="s" format="1">
  <advance width="320"/>
  <unicode hex="0073"/>
  <outline>
    <contour>
      <point x="32" y="51"/>
      <point x="44" y="70"/>
      <point x="32" y="51" type="curve"/>
      <point x="75" y="19"/>
      <point x="120" y="0"/>
      <point x="171" y="0" type="curve"/>
      <point x="251" y="0"/>
      <point x="289" y="56"/>
      <point x="289" y="140" type="curve"/>
      <point x="288" y="218"/>
      <point x="241" y="253"/>
      <point x="168" y="287" type="curve"/>
      <point x="110" y="313"/>
      <point x="79" y="350"/>
      <point x="79" y="414" type="curve"/>
      <point x="79" y="472"/>
      <point x="104" y="511"/>
      <point x="159" y="511" type="curve"/>
      <point x="196" y="511"/>
      <point x="240" y="490"/>
      <point x="261" y="471" type="curve"/>
      <point x="272" y="490"/>
      <point x="261" y="471"/>
      <point x="272" y="490" type="curve"/>
      <point x="249" y="511"/>
      <point x="201" y="533"/>
      <point x="160" y="533" type="curve"/>
      <point x="91" y="533"/>
      <point x="57" y="486"/>
      <point x="57" y="414" type="curve"/>
      <point x="57" y="340"/>
      <point x="92" y="297"/>
      <point x="160" y="266" type="curve"/>
      <point x="222" y="237"/>
      <point x="266" y="208"/>
      <point x="266" y="140" type="curve"/>
      <point x="266" y="71"/>
      <point x="238" y="22"/>
      <point x="174" y="22" type="curve"/>
      <point x="126" y="22"/>
      <point x="85" y="40"/>
      <point x="44" y="70" type="curve"/>
    </contour>
    <contour>
      <point x="250" y="490"/>
      <point x="272" y="490"/>
      <point x="250" y="490" type="curve"/>
      <point x="250" y="490"/>
      <point x="250" y="490"/>
      <point x="250" y="490" type="curve"/>
      <point x="272" y="490"/>
      <point x="250" y="490"/>
      <point x="272" y="490" type="curve"/>
      <point x="272" y="490"/>
      <point x="272" y="490"/>
      <point x="272" y="490" type="curve"/>
    </contour>
    <contour>
      <point x="52" y="51"/>
      <point x="30" y="51"/>
      <point x="52" y="51" type="curve"/>
      <point x="52" y="51"/>
      <point x="52" y="51"/>
      <point x="52" y="51" type="curve"/>
      <point x="30" y="51"/>
      <point x="52" y="51"/>
      <point x="30" y="51" type="curve"/>
      <point x="30" y="51"/>
      <point x="30" y="51"/>
      <point x="30" y="51" type="curve"/>
    </contour>
  </outline>
</glyph>
<glyph name="u" format="1">
  <advance width="340"/>
  <unicode hex="0075"/>
  <outline>
    <contour>
      <point x="298" y="533"/>
      <point x="298" y="511"/>
      <point x="298" y="533" type="curve"/>
      <point x="298" y="533"/>
      <point x="298" y="533"/>
      <point x="298" y="533" type="curve"/>
      <point x="298" y="511"/>
      <point x="298" y="533"/>
      <point x="298" y="511" type="curve"/>
      <point x="298" y="511"/>
      <point x="298" y="511"/>
      <point x="298" y="511" type="curve"/>
    </contour>
    <contour>
      <point x="42" y="533"/>
      <point x="42" y="511"/>
      <point x="42" y="533" type="curve"/>
      <point x="42" y="533"/>
      <point x="42" y="533"/>
      <point x="42" y="533" type="curve"/>
      <point x="42" y="511"/>
      <point x="42" y="533"/>
      <point x="42" y="511" type="curve"/>
      <point x="42" y="511"/>
      <point x="42" y="511"/>
      <point x="42" y="511" type="curve"/>
    </contour>
    <contour>
      <point x="298" y="-1"/>
      <point x="298" y="21"/>
      <point x="298" y="-1" type="curve"/>
      <point x="298" y="-1"/>
      <point x="298" y="-1"/>
      <point x="298" y="-1" type="curve"/>
      <point x="298" y="21"/>
      <point x="298" y="-1"/>
      <point x="298" y="21" type="curve"/>
      <point x="298" y="21"/>
      <point x="298" y="21"/>
      <point x="298" y="21" type="curve"/>
    </contour>
    <contour>
      <point x="310" y="0"/>
      <point x="285" y="0"/>
      <point x="310" y="0" type="curve"/>
      <point x="310" y="178"/>
      <point x="310" y="355"/>
      <point x="310" y="533" type="curve"/>
      <point x="285" y="533"/>
      <point x="310" y="533"/>
      <point x="285" y="533" type="curve"/>
      <point x="285" y="355"/>
      <point x="285" y="178"/>
      <point x="285" y="0" type="curve"/>
    </contour>
    <contour>
      <point x="290" y="161"/>
      <point x="305" y="151"/>
      <point x="290" y="161" type="curve"/>
      <point x="267" y="98"/>
      <point x="229" y="22"/>
      <point x="161" y="22" type="curve"/>
      <point x="77" y="22"/>
      <point x="54" y="91"/>
      <point x="54" y="187" type="curve"/>
      <point x="54" y="302"/>
      <point x="54" y="418"/>
      <point x="54" y="533" type="curve"/>
      <point x="30" y="533"/>
      <point x="54" y="533"/>
      <point x="30" y="533" type="curve"/>
      <point x="30" y="417"/>
      <point x="30" y="301"/>
      <point x="30" y="185" type="curve"/>
      <point x="30" y="76"/>
      <point x="61" y="0"/>
      <point x="159" y="0" type="curve"/>
      <point x="235" y="0"/>
      <point x="282" y="80"/>
      <point x="305" y="151" type="curve"/>
    </contour>
  </outline>
</glyph>
<glyph name="v" format="1">
  <advance width="387"/>
  <unicode hex="0076"/>
  <outline>
    <contour>
      <point x="50" y="533"/>
      <point x="50" y="511"/>
      <point x="50" y="533" type="curve"/>
      <point x="50" y="533"/>
      <point x="50" y="533"/>
      <point x="50" y="533" type="curve"/>
      <point x="50" y="511"/>
      <point x="50" y="533"/>
      <point x="50" y="511" type="curve"/>
      <point x="50" y="511"/>
      <point x="50" y="511"/>
      <point x="50" y="511" type="curve"/>
    </contour>
    <contour>
      <point x="50" y="511"/>
      <point x="50" y="533"/>
      <point x="50" y="511" type="curve"/>
      <point x="50" y="511"/>
      <point x="50" y="511"/>
      <point x="50" y="511" type="curve"/>
      <point x="50" y="533"/>
      <point x="50" y="511"/>
      <point x="50" y="533" type="curve"/>
      <point x="50" y="533"/>
      <point x="50" y="533"/>
      <point x="50" y="533" type="curve"/>
    </contour>
    <contour>
      <point x="336" y="533"/>
      <point x="336" y="511"/>
      <point x="336" y="533" type="curve"/>
      <point x="336" y="533"/>
      <point x="336" y="533"/>
      <point x="336" y="533" type="curve"/>
      <point x="336" y="511"/>
      <point x="336" y="533"/>
      <point x="336" y="511" type="curve"/>
      <point x="336" y="511"/>
      <point x="336" y="511"/>
      <point x="336" y="511" type="curve"/>
    </contour>
    <contour>
      <point x="336" y="511"/>
      <point x="336" y="533"/>
      <point x="336" y="511" type="curve"/>
      <point x="336" y="511"/>
      <point x="336" y="511"/>
      <point x="336" y="511" type="curve"/>
      <point x="336" y="533"/>
      <point x="336" y="511"/>
      <point x="336" y="533" type="curve"/>
      <point x="336" y="533"/>
      <point x="336" y="533"/>
      <point x="336" y="533" type="curve"/>
    </contour>
    <contour>
      <point x="30" y="533"/>
      <point x="56" y="533"/>
      <point x="30" y="533" type="curve"/>
      <point x="79" y="355"/>
      <point x="127" y="178"/>
      <point x="176" y="0" type="curve"/>
      <point x="200" y="0"/>
      <point x="176" y="0"/>
      <point x="200" y="0" type="curve"/>
      <point x="152" y="178"/>
      <point x="104" y="355"/>
      <point x="56" y="533" type="curve"/>
    </contour>
    <contour>
      <point x="331" y="533"/>
      <point x="356" y="533"/>
      <point x="331" y="533" type="curve"/>
      <point x="331" y="533"/>
      <point x="179" y="0"/>
      <point x="179" y="0" type="curve"/>
      <point x="204" y="0"/>
      <point x="179" y="0"/>
      <point x="204" y="0" type="curve"/>
      <point x="255" y="178"/>
      <point x="305" y="355"/>
      <point x="356" y="533" type="curve"/>
    </contour>
  </outline>
</glyph>
<glyph name="y" format="1">
  <advance width="388"/>
  <unicode hex="0079"/>
  <outline>
    <contour>
      <point x="69" y="-279"/>
      <point x="69" y="-300"/>
      <point x="69" y="-279" type="curve"/>
      <point x="69" y="-279"/>
      <point x="69" y="-279"/>
      <point x="69" y="-279" type="curve"/>
      <point x="69" y="-300"/>
      <point x="69" y="-279"/>
      <point x="69" y="-300" type="curve"/>
      <point x="69" y="-300"/>
      <point x="69" y="-300"/>
      <point x="69" y="-300" type="curve"/>
    </contour>
    <contour>
      <point x="52" y="533"/>
      <point x="52" y="511"/>
      <point x="52" y="533" type="curve"/>
      <point x="52" y="533"/>
      <point x="52" y="533"/>
      <point x="52" y="533" type="curve"/>
      <point x="52" y="511"/>
      <point x="52" y="533"/>
      <point x="52" y="511" type="curve"/>
      <point x="52" y="511"/>
      <point x="52" y="511"/>
      <point x="52" y="511" type="curve"/>
    </contour>
    <contour>
      <point x="52" y="511"/>
      <point x="52" y="533"/>
      <point x="52" y="511" type="curve"/>
      <point x="52" y="511"/>
      <point x="52" y="511"/>
      <point x="52" y="511" type="curve"/>
      <point x="52" y="533"/>
      <point x="52" y="511"/>
      <point x="52" y="533" type="curve"/>
      <point x="52" y="533"/>
      <point x="52" y="533"/>
      <point x="52" y="533" type="curve"/>
    </contour>
    <contour>
      <point x="336" y="533"/>
      <point x="336" y="511"/>
      <point x="336" y="533" type="curve"/>
      <point x="336" y="533"/>
      <point x="336" y="533"/>
      <point x="336" y="533" type="curve"/>
      <point x="336" y="511"/>
      <point x="336" y="533"/>
      <point x="336" y="511" type="curve"/>
      <point x="336" y="511"/>
      <point x="336" y="511"/>
      <point x="336" y="511" type="curve"/>
    </contour>
    <contour>
      <point x="336" y="511"/>
      <point x="336" y="533"/>
      <point x="336" y="511" type="curve"/>
      <point x="336" y="511"/>
      <point x="336" y="511"/>
      <point x="336" y="511" type="curve"/>
      <point x="336" y="533"/>
      <point x="336" y="511"/>
      <point x="336" y="533" type="curve"/>
      <point x="336" y="533"/>
      <point x="336" y="533"/>
      <point x="336" y="533" type="curve"/>
    </contour>
    <contour>
      <point x="200" y="77"/>
      <point x="177" y="77"/>
      <point x="200" y="77" type="curve"/>
      <point x="153" y="229"/>
      <point x="105" y="381"/>
      <point x="57" y="533" type="curve"/>
      <point x="30" y="533"/>
      <point x="57" y="533"/>
      <point x="30" y="533" type="curve"/>
      <point x="79" y="381"/>
      <point x="128" y="229"/>
      <point x="177" y="77" type="curve"/>
    </contour>
    <contour>
      <point x="74" y="-300"/>
      <point x="46" y="-300"/>
      <point x="74" y="-300" type="curve"/>
      <point x="168" y="-22"/>
      <point x="263" y="255"/>
      <point x="358" y="533" type="curve"/>
      <point x="331" y="533"/>
      <point x="358" y="533"/>
      <point x="331" y="533" type="curve"/>
      <point x="236" y="255"/>
      <point x="141" y="-22"/>
      <point x="46" y="-300" type="curve"/>
    </contour>
  </outline>
</glyph>
<glyph name="z" format="1">
  <advance width="366"/>
  <unicode hex="007A"/>
  <outline>
    <contour>
      <point x="36" y="511"/>
      <point x="36" y="533"/>
      <point x="36" y="511" type="curve"/>
      <point x="124" y="511"/>
      <point x="213" y="511"/>
      <point x="301" y="511" type="curve"/>
      <point x="299" y="514"/>
      <point x="296" y="516"/>
      <point x="294" y="518" type="curve"/>
      <point x="292" y="519"/>
      <point x="291" y="522"/>
      <point x="290" y="523" type="curve"/>
      <point x="287" y="519"/>
      <point x="284" y="516"/>
      <point x="281" y="512" type="curve"/>
      <point x="197" y="349"/>
      <point x="281" y="512"/>
      <point x="30" y="22" type="curve"/>
      <point x="30" y="10"/>
      <point x="30" y="22"/>
      <point x="30" y="10" type="curve"/>
      <point x="30" y="0"/>
      <point x="30" y="10"/>
      <point x="30" y="0" type="curve"/>
      <point x="37" y="0"/>
      <point x="30" y="0"/>
      <point x="37" y="0" type="curve"/>
      <point x="335" y="0"/>
      <point x="236" y="0"/>
      <point x="335" y="0" type="curve"/>
      <point x="335" y="22"/>
      <point x="335" y="0"/>
      <point x="335" y="22" type="curve"/>
      <point x="236" y="22"/>
      <point x="136" y="22"/>
      <point x="37" y="22" type="curve"/>
      <point x="39" y="20"/>
      <point x="41" y="18"/>
      <point x="43" y="16" type="curve"/>
      <point x="46" y="15"/>
      <point x="46" y="11"/>
      <point x="49" y="10" type="curve"/>
      <point x="51" y="14"/>
      <point x="54" y="17"/>
      <point x="57" y="21" type="curve"/>
      <point x="141" y="184"/>
      <point x="57" y="21"/>
      <point x="309" y="511" type="curve"/>
      <point x="309" y="523"/>
      <point x="309" y="511"/>
      <point x="309" y="523" type="curve"/>
      <point x="309" y="533"/>
      <point x="309" y="523"/>
      <point x="309" y="533" type="curve"/>
      <point x="301" y="533"/>
      <point x="309" y="533"/>
      <point x="301" y="533" type="curve"/>
      <point x="213" y="533"/>
      <point x="124" y="533"/>
      <point x="36" y="533" type="curve"/>
    </contour>
    <contour>
      <point x="36" y="522"/>
      <point x="58" y="522"/>
      <point x="36" y="522" type="curve"/>
      <point x="36" y="522"/>
      <point x="36" y="522"/>
      <point x="36" y="522" type="curve"/>
      <point x="58" y="522"/>
      <point x="36" y="522"/>
      <point x="58" y="522" type="curve"/>
      <point x="58" y="522"/>
      <point x="58" y="522"/>
      <point x="58" y="522" type="curve"/>
    </contour>
    <contour>
      <point x="335" y="11"/>
      <point x="313" y="11"/>
      <point x="335" y="11" type="curve"/>
      <point x="335" y="11"/>
      <point x="335" y="11"/>
      <point x="335" y="11" type="curve"/>
      <point x="313" y="11"/>
      <point x="335" y="11"/>
      <point x="313" y="11" type="curve"/>
      <point x="313" y="11"/>
      <point x="313" y="11"/>
      <point x="313" y="11" type="curve"/>
    </contour>
  </outline>
</glyph>
<glyph name="uni0904" format="1">
  <advance width="602"/>
  <unicode hex="0904"/>
  <outline>
    <contour>
      <point x="466" y="0"/>
      <point x="466" y="22"/>
      <point x="466" y="0" type="curve"/>
      <point x="466" y="0"/>
      <point x="466" y="0"/>
      <point x="466" y="0" type="curve"/>
      <point x="466" y="22"/>
      <point x="466" y="0"/>
      <point x="466" y="22" type="curve"/>
      <point x="466" y="22"/>
      <point x="466" y="22"/>
      <point x="466" y="22" type="curve"/>
    </contour>
    <contour>
      <point x="466" y="22"/>
      <point x="466" y="0"/>
      <point x="466" y="22" type="curve"/>
      <point x="466" y="22"/>
      <point x="466" y="22"/>
      <point x="466" y="22" type="curve"/>
      <point x="466" y="0"/>
      <point x="466" y="22"/>
      <point x="466" y="0" type="curve"/>
      <point x="466" y="0"/>
      <point x="466" y="0"/>
      <point x="466" y="0" type="curve"/>
    </contour>
    <contour>
      <point x="52" y="122"/>
      <point x="30" y="122"/>
      <point x="52" y="122" type="curve"/>
      <point x="52" y="122"/>
      <point x="52" y="122"/>
      <point x="52" y="122" type="curve"/>
      <point x="30" y="122"/>
      <point x="52" y="122"/>
      <point x="30" y="122" type="curve"/>
      <point x="30" y="122"/>
      <point x="30" y="122"/>
      <point x="30" y="122" type="curve"/>
    </contour>
    <contour>
      <point x="478" y="703"/>
      <point x="454" y="703"/>
      <point x="478" y="703" type="curve"/>
      <point x="478" y="813"/>
      <point x="421" y="873"/>
      <point x="312" y="892" type="curve"/>
      <point x="221" y="908"/>
      <point x="165" y="950"/>
      <point x="165" y="1039" type="curve"/>
      <point x="142" y="1039"/>
      <point x="165" y="1039"/>
      <point x="142" y="1039" type="curve"/>
      <point x="142" y="937"/>
      <point x="202" y="889"/>
      <point x="308" y="871" type="curve"/>
      <point x="402" y="856"/>
      <point x="454" y="799"/>
      <point x="454" y="703" type="curve"/>
    </contour>
    <contour>
      <point x="32" y="122"/>
      <point x="49" y="136"/>
      <point x="32" y="122" type="curve"/>
      <point x="62" y="71"/>
      <point x="110" y="32"/>
      <point x="168" y="32" type="curve"/>
      <point x="271" y="26"/>
      <point x="328" y="106"/>
      <point x="327" y="217" type="curve"/>
      <point x="326" y="330"/>
      <point x="246" y="395"/>
      <point x="130" y="395" type="curve"/>
      <point x="130" y="376"/>
      <point x="130" y="395"/>
      <point x="130" y="376" type="curve"/>
      <point x="234" y="376"/>
      <point x="303" y="316"/>
      <point x="304" y="214" type="curve"/>
      <point x="305" y="119"/>
      <point x="258" y="49"/>
      <point x="170" y="53" type="curve"/>
      <point x="117" y="53"/>
      <point x="77" y="91"/>
      <point x="49" y="136" type="curve"/>
    </contour>
    <contour>
      <point x="478" y="0"/>
      <point x="454" y="0"/>
      <point x="478" y="0" type="curve"/>
      <point x="478" y="237"/>
      <point x="478" y="473"/>
      <point x="478" y="710" type="curve"/>
      <point x="454" y="710"/>
      <point x="478" y="710"/>
      <point x="454" y="710" type="curve"/>
      <point x="454" y="473"/>
      <point x="454" y="237"/>
      <point x="454" y="0" type="curve"/>
    </contour>
    <contour>
      <point x="67" y="641"/>
      <point x="52" y="659"/>
      <point x="67" y="641" type="curve"/>
      <point x="100" y="675"/>
      <point x="128" y="700"/>
      <point x="175" y="700" type="curve"/>
      <point x="251" y="700"/>
      <point x="283" y="634"/>
      <point x="282" y="550" type="curve"/>
      <point x="281" y="458"/>
      <point x="222" y="399"/>
      <point x="130" y="399" type="curve"/>
      <point x="130" y="379"/>
      <point x="130" y="399"/>
      <point x="130" y="379" type="curve"/>
      <point x="237" y="379"/>
      <point x="306" y="446"/>
      <point x="306" y="553" type="curve"/>
      <point x="306" y="649"/>
      <point x="266" y="722"/>
      <point x="179" y="722" type="curve"/>
      <point x="124" y="722"/>
      <point x="90" y="698"/>
      <point x="52" y="659" type="curve"/>
    </contour>
    <contour>
      <point x="359" y="700"/>
      <point x="359" y="722"/>
      <point x="359" y="700" type="curve"/>
      <point x="430" y="700"/>
      <point x="501" y="700"/>
      <point x="571" y="700" type="curve"/>
      <point x="571" y="722"/>
      <point x="571" y="700"/>
      <point x="571" y="722" type="curve"/>
      <point x="501" y="722"/>
      <point x="430" y="722"/>
      <point x="359" y="722" type="curve"/>
    </contour>
    <contour>
      <point x="460" y="421"/>
      <point x="466" y="403"/>
      <point x="460" y="421" type="curve"/>
      <point x="370" y="359"/>
      <point x="284" y="366"/>
      <point x="177" y="391" type="curve"/>
      <point x="171" y="378"/>
      <point x="177" y="391"/>
      <point x="171" y="378" type="curve"/>
      <point x="284" y="349"/>
      <point x="375" y="335"/>
      <point x="466" y="403" type="curve"/>
    </contour>
  </outline>
</glyph>
<glyph name="ddhadeva" format="1">
  <advance width="520"/>
  <unicode hex="0922"/>
  <outline>
    <contour>
      <point x="30" y="700"/>
      <point x="30" y="722"/>
      <point x="30" y="700" type="curve"/>
      <point x="183" y="700"/>
      <point x="337" y="700"/>
      <point x="490" y="700" type="curve"/>
      <point x="490" y="722"/>
      <point x="490" y="700"/>
      <point x="490" y="722" type="curve"/>
      <point x="337" y="722"/>
      <point x="183" y="722"/>
      <point x="30" y="722" type="curve"/>
    </contour>
    <contour>
      <point x="351" y="710"/>
      <point x="375" y="710"/>
      <point x="351" y="710" type="curve"/>
      <point x="351" y="648"/>
      <point x="351" y="586"/>
      <point x="351" y="525" type="curve"/>
      <point x="354" y="528"/>
      <point x="357" y="530"/>
      <point x="360" y="533" type="curve"/>
      <point x="363" y="537"/>
      <point x="367" y="540"/>
      <point x="370" y="544" type="curve"/>
      <point x="344" y="544"/>
      <point x="318" y="544"/>
      <point x="293" y="544" type="curve"/>
      <point x="153" y="544"/>
      <point x="79" y="430"/>
      <point x="79" y="280" type="curve"/>
      <point x="80" y="126"/>
      <point x="136" y="0"/>
      <point x="273" y="0" type="curve"/>
      <point x="376" y="0"/>
      <point x="445" y="69"/>
      <point x="445" y="171" type="curve"/>
      <point x="445" y="251"/>
      <point x="412" y="311"/>
      <point x="340" y="311" type="curve"/>
      <point x="268" y="311"/>
      <point x="235" y="251"/>
      <point x="235" y="171" type="curve"/>
      <point x="235" y="101"/>
      <point x="264" y="47"/>
      <point x="322" y="7" type="curve"/>
      <point x="331" y="21"/>
      <point x="322" y="7"/>
      <point x="331" y="21" type="curve"/>
      <point x="281" y="62"/>
      <point x="259" y="108"/>
      <point x="259" y="171" type="curve"/>
      <point x="259" y="236"/>
      <point x="281" y="287"/>
      <point x="338" y="287" type="curve"/>
      <point x="397" y="287"/>
      <point x="421" y="237"/>
      <point x="421" y="171" type="curve"/>
      <point x="421" y="84"/>
      <point x="361" y="22"/>
      <point x="274" y="22" type="curve"/>
      <point x="149" y="22"/>
      <point x="104" y="142"/>
      <point x="104" y="283" type="curve"/>
      <point x="104" y="417"/>
      <point x="168" y="523"/>
      <point x="293" y="523" type="curve"/>
      <point x="318" y="523"/>
      <point x="344" y="523"/>
      <point x="370" y="523" type="curve"/>
      <point x="375" y="523"/>
      <point x="370" y="523"/>
      <point x="375" y="523" type="curve"/>
      <point x="375" y="525"/>
      <point x="375" y="523"/>
      <point x="375" y="525" type="curve"/>
      <point x="375" y="586"/>
      <point x="375" y="648"/>
      <point x="375" y="710" type="curve"/>
    </contour>
  </outline>
</glyph>
<glyph name="tadeva" format="1">
  <advance width="520"/>
  <unicode hex="0924"/>
  <outline>
    <contour>
      <point x="239" y="18"/>
      <point x="223" y="1"/>
      <point x="239" y="18" type="curve"/>
      <point x="161" y="110"/>
      <point x="111" y="187"/>
      <point x="111" y="307" type="curve"/>
      <point x="111" y="388"/>
      <point x="153" y="447"/>
      <point x="230" y="447" type="curve"/>
      <point x="285" y="447"/>
      <point x="339" y="447"/>
      <point x="394" y="447" type="curve"/>
      <point x="394" y="469"/>
      <point x="394" y="447"/>
      <point x="394" y="469" type="curve"/>
      <point x="339" y="469"/>
      <point x="284" y="469"/>
      <point x="229" y="469" type="curve"/>
      <point x="138" y="469"/>
      <point x="86" y="402"/>
      <point x="86" y="307" type="curve"/>
      <point x="86" y="180"/>
      <point x="137" y="95"/>
      <point x="223" y="1" type="curve"/>
    </contour>
    <contour>
      <point x="395" y="0"/>
      <point x="395" y="22"/>
      <point x="395" y="0" type="curve"/>
      <point x="395" y="0"/>
      <point x="395" y="0"/>
      <point x="395" y="0" type="curve"/>
      <point x="395" y="22"/>
      <point x="395" y="0"/>
      <point x="395" y="22" type="curve"/>
      <point x="395" y="22"/>
      <point x="395" y="22"/>
      <point x="395" y="22" type="curve"/>
    </contour>
    <contour>
      <point x="405" y="0"/>
      <point x="381" y="0"/>
      <point x="405" y="0" type="curve"/>
      <point x="405" y="237"/>
      <point x="405" y="473"/>
      <point x="405" y="710" type="curve"/>
      <point x="381" y="710"/>
      <point x="405" y="710"/>
      <point x="381" y="710" type="curve"/>
      <point x="381" y="473"/>
      <point x="381" y="237"/>
      <point x="381" y="0" type="curve"/>
    </contour>
    <contour>
      <point x="30" y="700"/>
      <point x="30" y="722"/>
      <point x="30" y="700" type="curve"/>
      <point x="184" y="700"/>
      <point x="337" y="700"/>
      <point x="491" y="700" type="curve"/>
      <point x="491" y="722"/>
      <point x="491" y="700"/>
      <point x="491" y="722" type="curve"/>
      <point x="337" y="722"/>
      <point x="184" y="722"/>
      <point x="30" y="722" type="curve"/>
    </contour>
  </outline>
</glyph>
<glyph name="dhadeva" format="1">
  <advance width="494"/>
  <unicode hex="0927"/>
  <outline>
    <contour>
      <point x="365" y="0"/>
      <point x="365" y="22"/>
      <point x="365" y="0" type="curve"/>
      <point x="365" y="0"/>
      <point x="365" y="0"/>
      <point x="365" y="0" type="curve"/>
      <point x="365" y="22"/>
      <point x="365" y="0"/>
      <point x="365" y="22" type="curve"/>
      <point x="365" y="22"/>
      <point x="365" y="22"/>
      <point x="365" y="22" type="curve"/>
    </contour>
    <contour>
      <point x="365" y="22"/>
      <point x="365" y="0"/>
      <point x="365" y="22" type="curve"/>
      <point x="365" y="22"/>
      <point x="365" y="22"/>
      <point x="365" y="22" type="curve"/>
      <point x="365" y="0"/>
      <point x="365" y="22"/>
      <point x="365" y="0" type="curve"/>
      <point x="365" y="0"/>
      <point x="365" y="0"/>
      <point x="365" y="0" type="curve"/>
    </contour>
    <contour>
      <point x="463" y="722"/>
      <point x="463" y="700"/>
      <point x="463" y="722" type="curve"/>
      <point x="428" y="722"/>
      <point x="393" y="722"/>
      <point x="358" y="722" type="curve"/>
      <point x="358" y="700"/>
      <point x="358" y="722"/>
      <point x="358" y="700" type="curve"/>
      <point x="393" y="700"/>
      <point x="428" y="700"/>
      <point x="463" y="700" type="curve"/>
    </contour>
    <contour>
      <point x="357" y="294"/>
      <point x="374" y="284"/>
      <point x="357" y="294" type="curve"/>
      <point x="329" y="202"/>
      <point x="284" y="133"/>
      <point x="193" y="133" type="curve"/>
      <point x="106" y="133"/>
      <point x="53" y="194"/>
      <point x="54" y="282" type="curve"/>
      <point x="55" y="374"/>
      <point x="120" y="429"/>
      <point x="216" y="429" type="curve"/>
      <point x="216" y="447"/>
      <point x="216" y="429"/>
      <point x="216" y="447" type="curve"/>
      <point x="106" y="447"/>
      <point x="30" y="386"/>
      <point x="30" y="280" type="curve"/>
      <point x="30" y="179"/>
      <point x="91" y="112"/>
      <point x="191" y="112" type="curve"/>
      <point x="292" y="112"/>
      <point x="346" y="183"/>
      <point x="374" y="284" type="curve"/>
    </contour>
    <contour>
      <point x="378" y="0"/>
      <point x="353" y="0"/>
      <point x="378" y="0" type="curve"/>
      <point x="378" y="237"/>
      <point x="378" y="473"/>
      <point x="378" y="710" type="curve"/>
      <point x="353" y="710"/>
      <point x="378" y="710"/>
      <point x="353" y="710" type="curve"/>
      <point x="353" y="473"/>
      <point x="353" y="237"/>
      <point x="353" y="0" type="curve"/>
    </contour>
    <contour>
      <point x="219" y="538"/>
      <point x="203" y="551"/>
      <point x="219" y="538" type="curve"/>
      <point x="234" y="562"/>
      <point x="239" y="583"/>
      <point x="239" y="612" type="curve"/>
      <point x="239" y="676"/>
      <point x="205" y="722"/>
      <point x="144" y="722" type="curve"/>
      <point x="72" y="722"/>
      <point x="38" y="664"/>
      <point x="38" y="585" type="curve"/>
      <point x="39" y="485"/>
      <point x="111" y="429"/>
      <point x="216" y="429" type="curve"/>
      <point x="216" y="447"/>
      <point x="216" y="429"/>
      <point x="216" y="447" type="curve"/>
      <point x="124" y="447"/>
      <point x="62" y="499"/>
      <point x="63" y="587" type="curve"/>
      <point x="63" y="650"/>
      <point x="85" y="700"/>
      <point x="142" y="700" type="curve"/>
      <point x="191" y="700"/>
      <point x="217" y="662"/>
      <point x="217" y="609" type="curve"/>
      <point x="217" y="587"/>
      <point x="213" y="571"/>
      <point x="203" y="551" type="curve"/>
    </contour>
  </outline>
</glyph>
<glyph name="ddhadeva_viramadeva_ddhadeva" format="1">
  <advance width="522"/>
  <unicode hex="E001"/>
  <outline>
    <contour>
      <point x="330" y="203"/>
      <point x="354" y="203"/>
      <point x="330" y="203" type="curve"/>
      <point x="330" y="144"/>
      <point x="330" y="85"/>
      <point x="330" y="26" type="curve"/>
      <point x="333" y="29"/>
      <point x="336" y="31"/>
      <point x="338" y="34" type="curve"/>
      <point x="341" y="38"/>
      <point x="344" y="40"/>
      <point x="347" y="44" type="curve"/>
      <point x="320" y="44"/>
      <point x="292" y="44"/>
      <point x="265" y="44" type="curve"/>
      <point x="157" y="44"/>
      <point x="93" y="-22"/>
      <point x="93" y="-130" type="curve"/>
      <point x="93" y="-252"/>
      <point x="170" y="-320"/>
      <point x="293" y="-320" type="curve"/>
      <point x="369" y="-320"/>
      <point x="419" y="-286"/>
      <point x="419" y="-215" type="curve"/>
      <point x="419" y="-158"/>
      <point x="397" y="-119"/>
      <point x="344" y="-119" type="curve"/>
      <point x="291" y="-119"/>
      <point x="268" y="-158"/>
      <point x="268" y="-216" type="curve"/>
      <point x="268" y="-269"/>
      <point x="289" y="-301"/>
      <point x="341" y="-314" type="curve"/>
      <point x="344" y="-300"/>
      <point x="341" y="-314"/>
      <point x="344" y="-300" type="curve"/>
      <point x="303" y="-286"/>
      <point x="292" y="-259"/>
      <point x="292" y="-215" type="curve"/>
      <point x="292" y="-171"/>
      <point x="304" y="-138"/>
      <point x="343" y="-138" type="curve"/>
      <point x="383" y="-138"/>
      <point x="395" y="-171"/>
      <point x="395" y="-216" type="curve"/>
      <point x="395" y="-272"/>
      <point x="355" y="-303"/>
      <point x="296" y="-303" type="curve"/>
      <point x="185" y="-303"/>
      <point x="118" y="-239"/>
      <point x="118" y="-130" type="curve"/>
      <point x="118" y="-37"/>
      <point x="172" y="21"/>
      <point x="265" y="21" type="curve"/>
      <point x="292" y="21"/>
      <point x="320" y="21"/>
      <point x="347" y="21" type="curve"/>
      <point x="354" y="21"/>
      <point x="347" y="21"/>
      <point x="354" y="21" type="curve"/>
      <point x="354" y="26"/>
      <point x="354" y="21"/>
      <point x="354" y="26" type="curve"/>
      <point x="354" y="85"/>
      <point x="354" y="144"/>
      <point x="354" y="203" type="curve"/>
    </contour>
    <contour>
      <point x="30" y="700"/>
      <point x="30" y="722"/>
      <point x="30" y="700" type="curve"/>
      <point x="184" y="700"/>
      <point x="338" y="700"/>
      <point x="493" y="700" type="curve"/>
      <point x="493" y="722"/>
      <point x="493" y="700"/>
      <point x="493" y="722" type="curve"/>
      <point x="338" y="722"/>
      <point x="184" y="722"/>
      <point x="30" y="722" type="curve"/>
    </contour>
    <contour>
      <point x="330" y="710"/>
      <point x="354" y="710"/>
      <point x="330" y="710" type="curve"/>
      <point x="330" y="646"/>
      <point x="330" y="581"/>
      <point x="330" y="517" type="curve"/>
      <point x="333" y="520"/>
      <point x="336" y="522"/>
      <point x="338" y="525" type="curve"/>
      <point x="341" y="528"/>
      <point x="344" y="530"/>
      <point x="346" y="533" type="curve"/>
      <point x="319" y="533"/>
      <point x="291" y="533"/>
      <point x="264" y="533" type="curve"/>
      <point x="159" y="533"/>
      <point x="93" y="474"/>
      <point x="93" y="371" type="curve"/>
      <point x="93" y="253"/>
      <point x="171" y="191"/>
      <point x="293" y="191" type="curve"/>
      <point x="368" y="191"/>
      <point x="420" y="223"/>
      <point x="420" y="292" type="curve"/>
      <point x="420" y="349"/>
      <point x="395" y="387"/>
      <point x="343" y="387" type="curve"/>
      <point x="289" y="387"/>
      <point x="264" y="350"/>
      <point x="264" y="292" type="curve"/>
      <point x="264" y="237"/>
      <point x="284" y="205"/>
      <point x="338" y="196" type="curve"/>
      <point x="343" y="210"/>
      <point x="338" y="196"/>
      <point x="343" y="210" type="curve"/>
      <point x="299" y="221"/>
      <point x="288" y="247"/>
      <point x="288" y="292" type="curve"/>
      <point x="288" y="335"/>
      <point x="304" y="368"/>
      <point x="343" y="368" type="curve"/>
      <point x="382" y="368"/>
      <point x="396" y="335"/>
      <point x="396" y="292" type="curve"/>
      <point x="396" y="237"/>
      <point x="355" y="209"/>
      <point x="296" y="209" type="curve"/>
      <point x="187" y="209"/>
      <point x="118" y="266"/>
      <point x="118" y="371" type="curve"/>
      <point x="118" y="459"/>
      <point x="174" y="511"/>
      <point x="264" y="511" type="curve"/>
      <point x="291" y="511"/>
      <point x="319" y="511"/>
      <point x="346" y="511" type="curve"/>
      <point x="354" y="511"/>
      <point x="346" y="511"/>
      <point x="354" y="511" type="curve"/>
      <point x="354" y="517"/>
      <point x="354" y="511"/>
      <point x="354" y="517" type="curve"/>
      <point x="354" y="581"/>
      <point x="354" y="646"/>
      <point x="354" y="710" type="curve"/>
    </contour>
  </outline>
</glyph>
